<?xml version="1.0" ?><!DOCTYPE svg  PUBLIC '-//W3C//DTD SVG 1.1//EN'  'http://www.w3.org/Graphics/SVG/1.1/DTD/svg11.dtd'><svg id="Layer_1" style="enable-background:new 0 0 74 74;" version="1.1" viewBox="0 0 74 74" xml:space="preserve" xmlns="http://www.w3.org/2000/svg" xmlns:xlink="http://www.w3.org/1999/xlink"><style type="text/css">
	.st0{fill:#7688A1;}
	.st1{fill:#FABB8E;}
	.st2{fill:#E69D6A;}
	.st3{fill:#594667;}
	.st4{fill:#E73A36;}
	.st5{fill:#CFE5E4;}
	.st6{fill:#FFFFFF;}
	.st7{fill:#EEF1F6;}
	.st8{fill:#8EDAFA;}
	.st9{fill:#FFF383;}
	.st10{fill:#70B7D6;}
	.st11{fill:#FFAEC3;}
	.st12{fill:#FF9DB2;}
	.st13{fill:#F18DA2;}
	.st14{fill:#FFDF97;}
	.st15{fill:#49375B;}
	.st16{fill:#452E1B;}
	.st17{fill:#FEF6B0;}
	.st18{fill:#FFCCA9;}
	.st19{fill:#FED766;}
	.st20{fill:#8A9DB2;}
	.st21{fill:#5D738C;}
	.st22{fill:#2C3E50;}
	.st23{fill:#EC685E;}
	.st24{fill:#54758C;}
	.st25{fill:#D12828;}
	.st26{fill:#69567C;}
	.st27{fill:#857399;}
	.st28{fill:#705D82;}
	.st29{fill:#EAA678;}
	.st30{fill:#D88D5B;}
	.st31{fill:#3597D3;}
	.st32{fill:#E27491;}
	.st33{fill:#E4F2F1;}
	.st34{fill:#FFE576;}
	.st35{fill:#FFB8CB;}
	.st36{fill:#C91F1F;}
	.st37{fill:#E0E2EE;}
	.st38{fill:#FEFEFE;}
	.st39{fill:#E5E5E5;}
	.st40{fill:#D3D3D3;}
	.st41{fill:#C2C3C4;}
	.st42{fill:none;}
	.st43{fill:#FFFBD7;}
	.st44{fill:#CCCCCC;}
	.st45{fill:#FFF5B0;}
	.st46{fill:#EDEFF4;}
	.st47{fill:#F0F2F7;}
	.st48{fill:#D3EBF7;}
</style><g><g><path class="st8" d="M32.4,72.8C14.9,72.6,0.9,58.3,1,40.9S15.4,9.4,32.9,9.5S64.4,24,64.2,41.4C64.1,58.8,49.8,72.9,32.4,72.8z"/><path class="st4" d="M32.4,64.7C19.5,64.6,9,53.9,9.1,41c0.1-13,10.7-23.4,23.7-23.3c13,0.1,23.4,10.7,23.3,23.7    C56,54.3,45.4,64.8,32.4,64.7z"/><path class="st19" d="M32.5,56.6c-8.5-0.1-15.4-7-15.3-15.6c0.1-8.5,7-15.4,15.6-15.3c8.5,0.1,15.4,7,15.3,15.6    C48,49.8,41,56.6,32.5,56.6z"/><circle class="st6" cx="32.6" cy="41.1" r="7.3"/></g><g><polygon class="st4" points="54.8,10.3 55.8,18.4 63.8,19.5 73,10.4 65,9.3 64,1.2   "/><g><path class="st3" d="M35.2,41.3L70.6,6.5c0.8-0.7,0.8-2,0-2.7l0,0c-0.7-0.8-2-0.8-2.7,0L32.5,38.6c-0.8,0.7-0.8,2,0,2.7l0,0     C33.2,42,34.4,42.1,35.2,41.3z"/></g></g></g></svg>